<mxfile host="app.diagrams.net" modified="2023-10-10T11:08:53.029Z" agent="Mozilla/5.0 (Windows NT 10.0; Win64; x64) AppleWebKit/537.36 (KHTML, like Gecko) Chrome/117.0.0.0 Safari/537.36" etag="Y1HValclzDqZBAdtrTpC" version="22.0.4" type="github">
  <diagram name="Página-1" id="0B2LBX658_kiQZaiVaaf">
    <mxGraphModel dx="1434" dy="796" grid="1" gridSize="10" guides="1" tooltips="1" connect="1" arrows="1" fold="1" page="1" pageScale="1" pageWidth="827" pageHeight="1169" math="0" shadow="0">
      <root>
        <mxCell id="0" />
        <mxCell id="1" parent="0" />
        <mxCell id="2c7vzuErf0XW3N74WRUO-1" value="&lt;font size=&quot;3&quot;&gt;ÍNICIO&lt;/font&gt;" style="rounded=1;whiteSpace=wrap;html=1;hachureGap=4;fontFamily=Architects Daughter;fontSource=https%3A%2F%2Ffonts.googleapis.com%2Fcss%3Ffamily%3DArchitects%2BDaughter;fontSize=20;labelBackgroundColor=none;fillColor=#5D7F99;strokeColor=#D0CEE2;fontColor=#1A1A1A;sketch=1;curveFitting=1;jiggle=2;" vertex="1" parent="1">
          <mxGeometry x="354" y="70" width="120" height="60" as="geometry" />
        </mxCell>
        <mxCell id="2c7vzuErf0XW3N74WRUO-11" style="edgeStyle=orthogonalEdgeStyle;rounded=0;hachureGap=4;orthogonalLoop=1;jettySize=auto;html=1;exitX=0.5;exitY=1;exitDx=0;exitDy=0;entryX=0.5;entryY=0;entryDx=0;entryDy=0;fontFamily=Architects Daughter;fontSource=https%3A%2F%2Ffonts.googleapis.com%2Fcss%3Ffamily%3DArchitects%2BDaughter;fontSize=16;labelBackgroundColor=none;strokeColor=#736CA8;fontColor=default;sketch=1;curveFitting=1;jiggle=2;" edge="1" parent="1" source="2c7vzuErf0XW3N74WRUO-2" target="2c7vzuErf0XW3N74WRUO-3">
          <mxGeometry relative="1" as="geometry" />
        </mxCell>
        <mxCell id="2c7vzuErf0XW3N74WRUO-2" value="LER X,Y" style="shape=parallelogram;perimeter=parallelogramPerimeter;whiteSpace=wrap;html=1;fixedSize=1;hachureGap=4;fontFamily=Architects Daughter;fontSource=https%3A%2F%2Ffonts.googleapis.com%2Fcss%3Ffamily%3DArchitects%2BDaughter;fontSize=20;labelBackgroundColor=none;fillColor=#5D7F99;strokeColor=#D0CEE2;fontColor=#1A1A1A;sketch=1;curveFitting=1;jiggle=2;" vertex="1" parent="1">
          <mxGeometry x="354" y="230" width="120" height="60" as="geometry" />
        </mxCell>
        <mxCell id="2c7vzuErf0XW3N74WRUO-12" style="edgeStyle=orthogonalEdgeStyle;rounded=0;hachureGap=4;orthogonalLoop=1;jettySize=auto;html=1;exitX=1;exitY=0.5;exitDx=0;exitDy=0;entryX=0.5;entryY=0;entryDx=0;entryDy=0;fontFamily=Architects Daughter;fontSource=https%3A%2F%2Ffonts.googleapis.com%2Fcss%3Ffamily%3DArchitects%2BDaughter;fontSize=16;labelBackgroundColor=none;strokeColor=#736CA8;fontColor=default;sketch=1;curveFitting=1;jiggle=2;" edge="1" parent="1" source="2c7vzuErf0XW3N74WRUO-3" target="2c7vzuErf0XW3N74WRUO-5">
          <mxGeometry relative="1" as="geometry" />
        </mxCell>
        <mxCell id="2c7vzuErf0XW3N74WRUO-40" value="NÃO" style="edgeLabel;html=1;align=center;verticalAlign=middle;resizable=0;points=[];fontSize=20;fontFamily=Architects Daughter;fontColor=#1A1A1A;" vertex="1" connectable="0" parent="2c7vzuErf0XW3N74WRUO-12">
          <mxGeometry x="-0.4074" y="-2" relative="1" as="geometry">
            <mxPoint x="-22" y="-52" as="offset" />
          </mxGeometry>
        </mxCell>
        <mxCell id="2c7vzuErf0XW3N74WRUO-13" style="edgeStyle=orthogonalEdgeStyle;rounded=0;hachureGap=4;orthogonalLoop=1;jettySize=auto;html=1;exitX=0;exitY=0.5;exitDx=0;exitDy=0;entryX=0.5;entryY=0;entryDx=0;entryDy=0;fontFamily=Architects Daughter;fontSource=https%3A%2F%2Ffonts.googleapis.com%2Fcss%3Ffamily%3DArchitects%2BDaughter;fontSize=16;labelBackgroundColor=none;strokeColor=#736CA8;fontColor=default;sketch=1;curveFitting=1;jiggle=2;" edge="1" parent="1" source="2c7vzuErf0XW3N74WRUO-3" target="2c7vzuErf0XW3N74WRUO-4">
          <mxGeometry relative="1" as="geometry" />
        </mxCell>
        <mxCell id="2c7vzuErf0XW3N74WRUO-39" value="SIM" style="edgeLabel;html=1;align=center;verticalAlign=middle;resizable=0;points=[];fontSize=20;fontFamily=Architects Daughter;fontColor=#1A1A1A;" vertex="1" connectable="0" parent="2c7vzuErf0XW3N74WRUO-13">
          <mxGeometry x="-0.2055" y="3" relative="1" as="geometry">
            <mxPoint x="44" y="-53" as="offset" />
          </mxGeometry>
        </mxCell>
        <mxCell id="2c7vzuErf0XW3N74WRUO-3" value="X&amp;gt;Y" style="rhombus;whiteSpace=wrap;html=1;hachureGap=4;fontFamily=Architects Daughter;fontSource=https%3A%2F%2Ffonts.googleapis.com%2Fcss%3Ffamily%3DArchitects%2BDaughter;fontSize=20;labelBackgroundColor=none;fillColor=#5D7F99;strokeColor=#D0CEE2;fontColor=#1A1A1A;sketch=1;curveFitting=1;jiggle=2;" vertex="1" parent="1">
          <mxGeometry x="362" y="400" width="104" height="100" as="geometry" />
        </mxCell>
        <mxCell id="2c7vzuErf0XW3N74WRUO-33" style="edgeStyle=orthogonalEdgeStyle;rounded=0;hachureGap=4;orthogonalLoop=1;jettySize=auto;html=1;exitX=0.5;exitY=1;exitDx=0;exitDy=0;entryX=0.5;entryY=0;entryDx=0;entryDy=0;fontFamily=Architects Daughter;fontSource=https%3A%2F%2Ffonts.googleapis.com%2Fcss%3Ffamily%3DArchitects%2BDaughter;fontSize=16;labelBackgroundColor=none;strokeColor=#736CA8;fontColor=default;sketch=1;curveFitting=1;jiggle=2;" edge="1" parent="1" source="2c7vzuErf0XW3N74WRUO-4" target="2c7vzuErf0XW3N74WRUO-6">
          <mxGeometry relative="1" as="geometry" />
        </mxCell>
        <mxCell id="2c7vzuErf0XW3N74WRUO-4" value="RES= X-Y" style="rounded=0;whiteSpace=wrap;html=1;hachureGap=4;fontFamily=Architects Daughter;fontSource=https%3A%2F%2Ffonts.googleapis.com%2Fcss%3Ffamily%3DArchitects%2BDaughter;fontSize=20;labelBackgroundColor=none;fillColor=#5D7F99;strokeColor=#D0CEE2;fontColor=#1A1A1A;sketch=1;curveFitting=1;jiggle=2;" vertex="1" parent="1">
          <mxGeometry x="130" y="570" width="120" height="60" as="geometry" />
        </mxCell>
        <mxCell id="2c7vzuErf0XW3N74WRUO-36" style="edgeStyle=orthogonalEdgeStyle;rounded=0;hachureGap=4;orthogonalLoop=1;jettySize=auto;html=1;exitX=0.5;exitY=1;exitDx=0;exitDy=0;entryX=0.5;entryY=0;entryDx=0;entryDy=0;fontFamily=Architects Daughter;fontSource=https%3A%2F%2Ffonts.googleapis.com%2Fcss%3Ffamily%3DArchitects%2BDaughter;fontSize=16;labelBackgroundColor=none;strokeColor=#736CA8;fontColor=default;sketch=1;curveFitting=1;jiggle=2;" edge="1" parent="1" source="2c7vzuErf0XW3N74WRUO-5" target="2c7vzuErf0XW3N74WRUO-6">
          <mxGeometry relative="1" as="geometry" />
        </mxCell>
        <mxCell id="2c7vzuErf0XW3N74WRUO-5" value="RES= Y-X" style="rounded=0;whiteSpace=wrap;html=1;hachureGap=4;fontFamily=Architects Daughter;fontSource=https%3A%2F%2Ffonts.googleapis.com%2Fcss%3Ffamily%3DArchitects%2BDaughter;fontSize=20;labelBackgroundColor=none;fillColor=#5D7F99;strokeColor=#D0CEE2;fontColor=#1A1A1A;sketch=1;curveFitting=1;jiggle=2;" vertex="1" parent="1">
          <mxGeometry x="610" y="570" width="120" height="60" as="geometry" />
        </mxCell>
        <mxCell id="2c7vzuErf0XW3N74WRUO-19" style="edgeStyle=orthogonalEdgeStyle;rounded=0;hachureGap=4;orthogonalLoop=1;jettySize=auto;html=1;exitX=0.5;exitY=1;exitDx=0;exitDy=0;entryX=0.5;entryY=0;entryDx=0;entryDy=0;fontFamily=Architects Daughter;fontSource=https%3A%2F%2Ffonts.googleapis.com%2Fcss%3Ffamily%3DArchitects%2BDaughter;fontSize=16;labelBackgroundColor=none;strokeColor=#736CA8;fontColor=default;sketch=1;curveFitting=1;jiggle=2;" edge="1" parent="1" source="2c7vzuErf0XW3N74WRUO-6" target="2c7vzuErf0XW3N74WRUO-8">
          <mxGeometry relative="1" as="geometry" />
        </mxCell>
        <mxCell id="2c7vzuErf0XW3N74WRUO-6" value="ESCREVER RES" style="shape=parallelogram;perimeter=parallelogramPerimeter;whiteSpace=wrap;html=1;fixedSize=1;hachureGap=4;fontFamily=Architects Daughter;fontSource=https%3A%2F%2Ffonts.googleapis.com%2Fcss%3Ffamily%3DArchitects%2BDaughter;fontSize=20;labelBackgroundColor=none;fillColor=#5D7F99;strokeColor=#D0CEE2;fontColor=#1A1A1A;sketch=1;curveFitting=1;jiggle=2;" vertex="1" parent="1">
          <mxGeometry x="317" y="770" width="194" height="60" as="geometry" />
        </mxCell>
        <mxCell id="2c7vzuErf0XW3N74WRUO-8" value="FIM" style="rounded=1;whiteSpace=wrap;html=1;hachureGap=4;fontFamily=Architects Daughter;fontSource=https%3A%2F%2Ffonts.googleapis.com%2Fcss%3Ffamily%3DArchitects%2BDaughter;fontSize=20;labelBackgroundColor=none;fillColor=#5D7F99;strokeColor=#D0CEE2;fontColor=#1A1A1A;sketch=1;curveFitting=1;jiggle=2;" vertex="1" parent="1">
          <mxGeometry x="354" y="930" width="120" height="60" as="geometry" />
        </mxCell>
        <mxCell id="2c7vzuErf0XW3N74WRUO-9" value="" style="endArrow=classic;html=1;rounded=0;hachureGap=4;fontFamily=Architects Daughter;fontSource=https%3A%2F%2Ffonts.googleapis.com%2Fcss%3Ffamily%3DArchitects%2BDaughter;fontSize=16;exitX=0.5;exitY=1;exitDx=0;exitDy=0;entryX=0.5;entryY=0;entryDx=0;entryDy=0;labelBackgroundColor=none;strokeColor=#736CA8;fontColor=default;sketch=1;curveFitting=1;jiggle=2;" edge="1" parent="1" source="2c7vzuErf0XW3N74WRUO-1" target="2c7vzuErf0XW3N74WRUO-2">
          <mxGeometry width="50" height="50" relative="1" as="geometry">
            <mxPoint x="389" y="190" as="sourcePoint" />
            <mxPoint x="439" y="140" as="targetPoint" />
          </mxGeometry>
        </mxCell>
      </root>
    </mxGraphModel>
  </diagram>
</mxfile>
